<svg width="26" height="25" viewBox="0 0 26 25" fill="none" xmlns="http://www.w3.org/2000/svg">
<path d="M7.58335 21.5142C6.98751 21.5142 6.47763 21.3138 6.05368 20.9128C5.62902 20.5112 5.41668 20.0287 5.41668 19.4652V6.14692C5.10974 6.14692 4.85227 6.04891 4.64427 5.8529C4.43699 5.65619 4.33335 5.41271 4.33335 5.12244C4.33335 4.83217 4.43699 4.58868 4.64427 4.39198C4.85227 4.19596 5.10974 4.09795 5.41668 4.09795H9.75001C9.75001 3.80768 9.85401 3.56419 10.062 3.36749C10.2693 3.17147 10.5264 3.07347 10.8333 3.07347H15.1667C15.4736 3.07347 15.7311 3.17147 15.9391 3.36749C16.1464 3.56419 16.25 3.80768 16.25 4.09795H20.5833C20.8903 4.09795 21.1474 4.19596 21.3546 4.39198C21.5626 4.58868 21.6666 4.83217 21.6666 5.12244C21.6666 5.41271 21.5626 5.65619 21.3546 5.8529C21.1474 6.04891 20.8903 6.14692 20.5833 6.14692V19.4652C20.5833 20.0287 20.3713 20.5112 19.9474 20.9128C19.5227 21.3138 19.0125 21.5142 18.4167 21.5142H7.58335ZM7.58335 6.14692V19.4652H18.4167V6.14692H7.58335ZM9.75001 16.3918C9.75001 16.6821 9.85401 16.9252 10.062 17.1212C10.2693 17.3179 10.5264 17.4163 10.8333 17.4163C11.1403 17.4163 11.3978 17.3179 11.6058 17.1212C11.813 16.9252 11.9167 16.6821 11.9167 16.3918V9.22038C11.9167 8.93011 11.813 8.68662 11.6058 8.48992C11.3978 8.2939 11.1403 8.1959 10.8333 8.1959C10.5264 8.1959 10.2693 8.2939 10.062 8.48992C9.85401 8.68662 9.75001 8.93011 9.75001 9.22038V16.3918ZM14.0833 16.3918C14.0833 16.6821 14.1873 16.9252 14.3953 17.1212C14.6026 17.3179 14.8597 17.4163 15.1667 17.4163C15.4736 17.4163 15.7311 17.3179 15.9391 17.1212C16.1464 16.9252 16.25 16.6821 16.25 16.3918V9.22038C16.25 8.93011 16.1464 8.68662 15.9391 8.48992C15.7311 8.2939 15.4736 8.1959 15.1667 8.1959C14.8597 8.1959 14.6026 8.2939 14.3953 8.48992C14.1873 8.68662 14.0833 8.93011 14.0833 9.22038V16.3918ZM7.58335 6.14692V19.4652V6.14692Z" fill="white"/>
</svg>
