<svg width="24" height="24" viewBox="0 0 24 24" fill="none" xmlns="http://www.w3.org/2000/svg">
<path d="M4.30772 20.5C3.80259 20.5 3.37502 20.325 3.02502 19.975C2.67502 19.625 2.50002 19.1974 2.50002 18.6923V8.30771C2.50002 7.80258 2.67502 7.37501 3.02502 7.02501C3.37502 6.67501 3.80259 6.50001 4.30772 6.50001H8.50002V4.80774C8.50002 4.30262 8.67502 3.87506 9.02502 3.52506C9.37502 3.17506 9.80259 3.00006 10.3077 3.00006H13.6923C14.1974 3.00006 14.625 3.17506 14.975 3.52506C15.325 3.87506 15.5 4.30262 15.5 4.80774V6.50001H19.6923C20.1974 6.50001 20.625 6.67501 20.975 7.02501C21.325 7.37501 21.5 7.80258 21.5 8.30771V18.6923C21.5 19.1974 21.325 19.625 20.975 19.975C20.625 20.325 20.1974 20.5 19.6923 20.5H4.30772ZM4.30772 19H19.6923C19.7692 19 19.8397 18.9679 19.9039 18.9038C19.9679 18.8397 20 18.7692 20 18.6923V8.30771C20 8.23078 19.9679 8.16025 19.9039 8.09614C19.8397 8.03204 19.7692 7.99999 19.6923 7.99999H4.30772C4.23079 7.99999 4.16026 8.03204 4.09615 8.09614C4.03205 8.16025 4 8.23078 4 8.30771V18.6923C4 18.7692 4.03205 18.8397 4.09615 18.9038C4.16026 18.9679 4.23079 19 4.30772 19ZM10 6.50001H14V4.80774C14 4.7308 13.9679 4.66029 13.9038 4.59619C13.8397 4.53207 13.7692 4.50001 13.6923 4.50001H10.3077C10.2308 4.50001 10.1603 4.53207 10.0961 4.59619C10.032 4.66029 10 4.7308 10 4.80774V6.50001Z" fill="#1DA1F2"/>
</svg>
